<svg xmlns="http://www.w3.org/2000/svg" version="1.1" xmlns:xlink="http://www.w3.org/1999/xlink" xmlns:svgjs="http://svgjs.com/svgjs" id="Pattern1510SvgRootPreview" width="100%" height="100%"><defs><pattern x="0" y="0" width="1" height="1" patternUnits="userSpaceOnUse" id="Pattern1510Layer1"><g id="PatternRootContent1"><g id="Pattern1510Layer1background"><rect width="1" height="1" id="Pattern1510Background1" class="color_1 fill_color_1" fill="#c7d9d1"></rect></g></g></pattern><pattern x="0" y="0" width="27" height="46" patternUnits="userSpaceOnUse" id="Pattern1510Layer2" patternTransform="matrix(1,0,0,1,0,0)"><g id="PatternRootContent2"><g id="Pattern1510Layer2Element2"><use xlink:href="#Pattern1510Element2" x="8.690380096435547" y="-29.944793701171875" transform="translate(27, -11.5) scale(1) translate(-27, 11.5) rotate(78, 27, -11.5)"></use><use xlink:href="#Pattern1510Element2" x="-18.309619903564453" y="-29.944793701171875" transform="translate(0, -11.5) scale(1) translate(0, 11.5) rotate(78, 0, -11.5)"></use><use xlink:href="#Pattern1510Element2" x="-4.809619903564453" y="-6.944793701171875" transform="translate(13.5, 11.5) scale(1) translate(-13.5, -11.5) rotate(78, 13.5, 11.5)"></use><use xlink:href="#Pattern1510Element2" x="-31.809619903564453" y="-6.944793701171875" transform="translate(-13.5, 11.5) scale(1) translate(13.5, -11.5) rotate(78, -13.5, 11.5)"></use><use xlink:href="#Pattern1510Element2" x="22.190380096435547" y="-6.944793701171875" transform="translate(40.5, 11.5) scale(1) translate(-40.5, -11.5) rotate(78, 40.5, 11.5)"></use><use xlink:href="#Pattern1510Element2" x="8.690380096435547" y="16.055206298828125" transform="translate(27, 34.5) scale(1) translate(-27, -34.5) rotate(78, 27, 34.5)"></use><use xlink:href="#Pattern1510Element2" x="-18.309619903564453" y="16.055206298828125" transform="translate(0, 34.5) scale(1) translate(0, -34.5) rotate(78, 0, 34.5)"></use><use xlink:href="#Pattern1510Element2" x="-4.809619903564453" y="39.055206298828125" transform="translate(13.5, 57.5) scale(1) translate(-13.5, -57.5) rotate(78, 13.5, 57.5)"></use><use xlink:href="#Pattern1510Element2" x="-4.809619903564453" y="39.055206298828125" transform="translate(13.5, 57.5) scale(1) translate(-13.5, -57.5) rotate(78, 13.5, 57.5)"></use></g></g></pattern><symbol id="Pattern1510Element2"><g class="color_3 fill_color_3" fill="#e9f2ed"><path d="M25.381,20.032428741455078L23.259,19.325321197509766L21.845,19.325321197509766L21.845,17.911108016967773L19.017,19.325321197509766L20.431,16.49689292907715L14.067,21.44664192199707L19.017,15.082679748535156L16.895,15.789786338806152L17.603,13.668465614318848L14.067,15.789786338806152L16.188,12.254252433776855L9.117,17.911108016967773L14.774,10.840038299560547L9.824,14.375572204589844L13.36,9.425825119018555L11.946,9.425825119018555L11.946,8.011610984802246L11.239,5.890291213989258L13.36,6.597397804260254L14.774,6.597397804260254L14.774,8.011610984802246L19.724,4.476077556610107L16.188,9.425825119018555L23.259,3.768970489501953L17.603,10.840038299560547L21.138,8.718718528747559L19.017,12.254252433776855L21.138,11.547144889831543L20.431,13.668465614318848L26.795,8.718718528747559L21.845,15.082679748535156L24.674,13.668465614318848L23.259,16.49689292907715L24.674,16.49689292907715L24.674,17.911108016967773L25.381,20.032428741455078Z"></path><path d="M14.713,26.049549102783203L16.386,24.56598663330078L17.093,23.34124183654785L18.317,24.04834747314453L18.507,20.89175033569336L20.249,23.530710220336914L19.145,15.544483184814453L22.181,23.013071060180664L22.629,20.82240104675293L24.113,22.495433807373047L24.044,18.37291145324707L26.045,21.977794647216797L24.681,13.025643348693848L27.977,21.46015739440918L27.39,15.405782699584961L29.909,20.94251823425293L30.616,19.7177734375L31.84,20.424880981445312L34.031,20.8731689453125L32.358,22.356733322143555L31.651,23.581478118896484L30.426,22.874370574951172L31.013,28.92874526977539L28.494,23.392009735107422L29.858,32.34415817260742L26.562,23.90964698791504L26.632,28.032169342041016L24.631,24.427284240722656L24.182,26.617956161499023L22.699,24.944923400878906L23.803,32.931148529052734L20.767,25.462560653686523L20.577,28.619157791137695L18.835,25.980199813842773L18.128,27.204944610595703L16.903,26.49783706665039L14.713,26.049549102783203Z"></path><path d="M14.836,13.80210018157959L15.284,15.99277114868164L15.991,17.21751594543457L14.766,17.924623489379883L17.405,19.66700553894043L14.249,19.856475830078125L21.717,22.892953872680664L13.731,21.788326263427734L15.404,23.27189064025879L13.213,23.720178604125977L16.818,25.72138023376465L12.696,25.652029037475586L21.13,28.94732666015625L12.178,27.583881378173828L17.715,30.10272216796875L11.66,29.51573371887207L12.368,30.740478515625L11.143,31.44758415222168L9.659,33.1206169128418L9.211,30.929946899414062L8.504,29.705202102661133L9.729,28.99809455871582L4.192,26.47925567626953L10.246,27.06624412536621L1.812,23.770946502685547L10.764,25.13439178466797L7.159,23.133190155029297L11.282,23.202539443969727L9.608,21.718976974487305L11.799,21.270689010620117L4.331,18.234210968017578L12.317,19.338836669921875L9.678,17.596454620361328L12.834,17.406984329223633L12.127,16.182239532470703L13.352,15.475132942199707L14.836,13.80210018157959Z"></path></g></symbol></defs><rect width="100%" height="100%" id="Pattern1510RctLayer1" fill="url(#Pattern1510Layer1)"></rect><rect width="100%" height="100%" id="Pattern1510RctLayer2" fill="url(#Pattern1510Layer2)"></rect></svg>